<svg xmlns="http://www.w3.org/2000/svg" width="19.5" height="24.5" viewBox="299.5 221.5 19.5 24.5"><g data-name="Group 45061"><path d="M316.5 223h-14a2.502 2.502 0 0 0-2.5 2.5v15c0 .133.053.26.146.354l5.001 5a.5.5 0 0 0 .353.146h11a2.502 2.502 0 0 0 2.5-2.5v-18a2.502 2.502 0 0 0-2.5-2.5Zm1.5 20.5a1.502 1.502 0 0 1-1.5 1.5h-10.793L301 240.293V225.5a1.502 1.502 0 0 1 1.5-1.5h14a1.502 1.502 0 0 1 1.5 1.5v18Z" fill="#fff" fill-rule="evenodd" data-name="Path 36617"/><path d="M304.5 240h-4a.5.5 0 0 0-.354.854l5.001 5a.5.5 0 0 0 .853-.354v-4a1.502 1.502 0 0 0-1.5-1.5Zm.5 4.293L301.707 241h2.793a.5.5 0 0 1 .5.5v2.793Z" fill="#fff" fill-rule="evenodd" data-name="Path 36618"/><g data-name="Group 45062"><path d="m304.804 226.096-4.243-4.242a.5.5 0 0 0-.707.707l4.243 4.242a.5.5 0 0 0 .707-.707Z" fill="#fff" fill-rule="evenodd" data-name="Path 36619"/><path d="m300.56 226.803 4.243-4.242a.5.5 0 0 0-.707-.707l-4.242 4.242a.5.5 0 0 0 .707.707Z" fill="#fff" fill-rule="evenodd" data-name="Path 36647"/></g></g></svg>