<svg xmlns="http://www.w3.org/2000/svg" width="18.287" height="18.287" viewBox="300 156.213 18.287 18.287"><g data-name="Group 45057"><g data-name="Group 45055"><path d="M309.144 156.213a9.144 9.144 0 1 0 9.143 9.143 9.154 9.154 0 0 0-9.143-9.143Zm0 16.88a7.737 7.737 0 1 1 7.736-7.737 7.746 7.746 0 0 1-7.736 7.737Z" fill="#fff" fill-rule="evenodd" data-name="Path 36615"/><path d="M309.847 165.065v-3.929a.703.703 0 0 0-1.407 0v4.22c0 .187.074.366.206.498l2.814 2.813a.703.703 0 0 0 .994-.994l-2.607-2.608Z" fill="#fff" fill-rule="evenodd" data-name="Path 36616"/></g></g></svg>