<svg xmlns="http://www.w3.org/2000/svg" width="13.429" height="13.429" viewBox="1064.454 31.781 13.429 13.429"><g data-name="Group 45078"><g data-name="Group 45076"><g data-name="Path 36656"><path d="M1076.716 32.979v-.03a1.168 1.168 0 0 0-2.336 0h-2.043a1.168 1.168 0 0 0-2.336 0h-2.043a1.168 1.168 0 0 0-2.336 0v.03c-.679.139-1.167.736-1.168 1.43v9.342c.001.806.654 1.459 1.46 1.46h10.51c.806-.001 1.459-.654 1.46-1.46v-9.342c-.001-.694-.489-1.291-1.168-1.43Zm-1.752-.03a.584.584 0 1 1 1.168 0v.876a.584.584 0 1 1-1.168 0v-.876Zm-4.379 0a.584.584 0 1 1 1.168 0v.876a.584.584 0 1 1-1.168 0v-.876Zm-4.379 0a.584.584 0 1 1 1.168 0v.876a.584.584 0 1 1-1.168 0v-.876Zm11.094 10.802a.877.877 0 0 1-.876.876h-10.51a.877.877 0 0 1-.876-.876v-9.342c.001-.37.235-.7.584-.822v.238a1.168 1.168 0 0 0 2.336 0v-.292H1070v.292a1.168 1.168 0 0 0 2.336 0v-.292h2.043v.292a1.168 1.168 0 0 0 2.336 0v-.238a.874.874 0 0 1 .584.822v9.342Z" fill="#002d6a" fill-rule="evenodd"/><path d="M1076.716 32.979v-.03a1.168 1.168 0 0 0-2.336 0h-2.043a1.168 1.168 0 0 0-2.336 0h-2.043a1.168 1.168 0 0 0-2.336 0v.03c-.679.139-1.167.736-1.168 1.43v9.342c.001.806.654 1.459 1.46 1.46h10.51c.806-.001 1.459-.654 1.46-1.46v-9.342c-.001-.694-.489-1.291-1.168-1.43Zm-1.752-.03a.584.584 0 1 1 1.168 0v.876a.584.584 0 1 1-1.168 0v-.876Zm-4.379 0a.584.584 0 1 1 1.168 0v.876a.584.584 0 1 1-1.168 0v-.876Zm-4.379 0a.584.584 0 1 1 1.168 0v.876a.584.584 0 1 1-1.168 0v-.876Zm11.094 10.802a.877.877 0 0 1-.876.876h-10.51a.877.877 0 0 1-.876-.876v-9.342c.001-.37.235-.7.584-.822v.238a1.168 1.168 0 0 0 2.336 0v-.292H1070v.292a1.168 1.168 0 0 0 2.336 0v-.292h2.043v.292a1.168 1.168 0 0 0 2.336 0v-.238a.874.874 0 0 1 .584.822v9.342Z" stroke-linejoin="round" stroke-linecap="round" stroke-width=".5" stroke="#002d6a" fill="transparent"/></g><g data-name="Path 36658"><path d="M1071.461 39.543v-1.631a.292.292 0 0 0-.584 0v1.752c0 .077.03.151.086.206l1.167 1.168a.292.292 0 0 0 .413-.413l-1.082-1.082Z" fill="#002d6a" fill-rule="evenodd"/><path d="M1071.461 39.543v-1.631a.292.292 0 0 0-.584 0v1.752c0 .077.03.151.086.206l1.167 1.168a.292.292 0 0 0 .413-.413l-1.082-1.082Z" stroke-linejoin="round" stroke-linecap="round" stroke-width=".5" stroke="#002d6a" fill="transparent"/></g></g></g></svg>