<svg xmlns="http://www.w3.org/2000/svg" width="17.493" height="17.525" viewBox="891 250 17.493 17.525"><g data-name="Group 45075"><path d="M900.639 250c-.12.052-.23.122-.328.207a.486.486 0 0 0 .3.8c.64.112 1.264.296 1.861.55 2.665 1.212 4.345 3.232 4.98 6.103.024.146.068.287.129.421a.489.489 0 0 0 .864-.051.503.503 0 0 0 .025-.367 9.273 9.273 0 0 0-1.492-3.634 9.404 9.404 0 0 0-5.514-3.855c-.253-.066-.512-.109-.825-.174m.015 3.198a.541.541 0 0 0-.577.343.499.499 0 0 0 .424.65 4.692 4.692 0 0 1 3.61 3.052c.11.279.157.58.245.868a.493.493 0 0 0 .892.123.505.505 0 0 0 .068-.369 4.392 4.392 0 0 0-.08-.367 5.694 5.694 0 0 0-3.753-4.08 8.226 8.226 0 0 0-.829-.22Z" fill="#012d6a" fill-rule="evenodd" data-name="Path 36676"/><path d="M891 254.84c.026-.204.04-.407.08-.607a2.53 2.53 0 0 1 .674-1.3c.47-.48.924-.981 1.43-1.421.77-.67 1.606-.667 2.348.029a47.98 47.98 0 0 1 2.283 2.308 1.557 1.557 0 0 1 .01 2.094c-.394.448-.828.862-1.252 1.284a.174.174 0 0 0-.044.243 9.619 9.619 0 0 0 1.67 2.28c.658.712 1.402 1.34 2.216 1.867.234.149.485.272.744.417.32-.323.622-.648.946-.95.227-.231.48-.434.754-.605a1.488 1.488 0 0 1 1.776.219c.808.778 1.605 1.57 2.374 2.386a1.586 1.586 0 0 1 .024 2.154 27.863 27.863 0 0 1-1.53 1.585 2.512 2.512 0 0 1-1.467.67.78.78 0 0 0-.113.032h-.65c-.037-.01-.075-.023-.113-.029-.368-.067-.743-.11-1.105-.203a12.735 12.735 0 0 1-3.568-1.638 17.77 17.77 0 0 1-6.434-7.073 10.041 10.041 0 0 1-.933-2.61c-.058-.295-.081-.595-.12-.893v-.24Zm.993.147c.04.287.063.578.125.86a10.803 10.803 0 0 0 1.418 3.365 16.747 16.747 0 0 0 6.947 6.41 8.06 8.06 0 0 0 2.866.896 1.886 1.886 0 0 0 1.607-.539c.39-.4.784-.796 1.172-1.196.415-.43.415-.788-.002-1.215-.307-.314-.62-.621-.93-.931-.375-.375-.746-.753-1.126-1.122a.653.653 0 0 0-.975-.02c-.056.048-.108.1-.16.153-.392.39-.78.783-1.174 1.17a.733.733 0 0 1-.905.175 10.93 10.93 0 0 1-.987-.544 12.85 12.85 0 0 1-2.8-2.462 9.163 9.163 0 0 1-1.457-2.136c-.3-.647-.258-.835.258-1.335.389-.377.776-.754 1.147-1.148a.634.634 0 0 0 .009-.935 1.494 1.494 0 0 0-.116-.127c-.664-.665-1.328-1.33-1.994-1.994a1.17 1.17 0 0 0-.255-.198c-.293-.16-.59-.092-.893.204-.377.37-.742.756-1.126 1.12a2.002 2.002 0 0 0-.651 1.548" fill="#012d6a" fill-rule="evenodd" data-name="Path 36677"/><path d="M900.654 253.197c.28.059.557.132.829.22a5.694 5.694 0 0 1 3.753 4.08c.032.121.058.244.08.367a.504.504 0 0 1-.372.589.493.493 0 0 1-.588-.343c-.087-.287-.136-.59-.245-.868a4.692 4.692 0 0 0-3.61-3.053.499.499 0 0 1-.424-.65.54.54 0 0 1 .577-.342" fill="#012d6a" fill-rule="evenodd" data-name="Path 36679"/></g></svg>