<svg xmlns="http://www.w3.org/2000/svg" width="14.361" height="14.361" viewBox="89 95 14.361 14.361"><g data-name="Group 45064"><g data-name="Group 45055"><path d="M96.18 95a7.18 7.18 0 1 0 7.18 7.18A7.189 7.189 0 0 0 96.18 95Zm0 13.256a6.076 6.076 0 1 1 6.076-6.076 6.083 6.083 0 0 1-6.076 6.076Z" fill="#fff" fill-rule="evenodd" data-name="Path 36615"/><path d="M96.733 101.952v-3.086a.552.552 0 0 0-1.105 0v3.314c0 .147.058.287.162.39l2.21 2.21a.552.552 0 0 0 .78-.78l-2.047-2.048Z" fill="#fff" fill-rule="evenodd" data-name="Path 36616"/></g></g></svg>