<svg xmlns="http://www.w3.org/2000/svg" width="82.529" height="88.378" viewBox="24 16.811 82.529 88.378"><g data-name="docx"><g data-name="Group 40891"><path d="M114.854 0h29.928l26.427 26.422V77.17c0 6.167-5.046 11.208-11.209 11.208h-45.146c-6.162 0-11.208-5.041-11.208-11.208V11.208C103.646 5.041 108.692 0 114.854 0Z" fill-rule="evenodd" fill="url(&quot;#a&quot;)" transform="translate(-64.68 16.811)" data-name="Path 35233"/><path d="m80.102 16.811 26.427 26.422H82.956a2.856 2.856 0 0 1-2.854-2.849V16.811Z" fill="#006fc4" fill-rule="evenodd" data-name="Path 35234"/><path d="M26.46 54.441h60.87a2.47 2.47 0 0 1 2.46 2.46v22.33a2.474 2.474 0 0 1-2.46 2.466H26.46A2.47 2.47 0 0 1 24 79.232v-22.33a2.466 2.466 0 0 1 2.46-2.46Z" fill="#006fc4" fill-rule="evenodd" data-name="Path 35235"/></g><path d="M50.382 59a6.025 6.025 0 0 0-6.019 6.018v6.102c0 3.318 2.7 6.018 6.019 6.018 3.318 0 6.018-2.7 6.018-6.018v-6.102C56.4 61.7 53.7 59 50.382 59Zm3.164 12.12a3.168 3.168 0 0 1-3.164 3.164 3.168 3.168 0 0 1-3.165-3.164v-6.102a3.168 3.168 0 0 1 3.165-3.164 3.168 3.168 0 0 1 3.164 3.164v6.102Zm7.632-6.102v6.102a3.168 3.168 0 0 0 3.165 3.164 3.168 3.168 0 0 0 3.164-3.164 1.427 1.427 0 1 1 2.854 0c0 3.318-2.7 6.018-6.018 6.018a6.025 6.025 0 0 1-6.019-6.018v-6.102c0-3.318 2.7-6.018 6.019-6.018 3.318 0 6.018 2.7 6.018 6.018a1.427 1.427 0 1 1-2.854 0 3.168 3.168 0 0 0-3.164-3.164 3.168 3.168 0 0 0-3.165 3.164Zm-25-6.018h-4.591c-.788 0-1.427.639-1.427 1.427v15.284c0 .788.639 1.427 1.427 1.427h4.591c3.319 0 6.018-2.7 6.018-6.018v-6.102c0-3.318-2.7-6.018-6.018-6.018Zm3.165 12.12a3.168 3.168 0 0 1-3.165 3.164h-3.164v-12.43h3.164a3.168 3.168 0 0 1 3.165 3.164v6.102Zm44.078 3.856a1.427 1.427 0 1 1-2.446 1.47l-3.368-5.606-3.368 5.606a1.426 1.426 0 1 1-2.447-1.47l4.15-6.907-4.15-6.907a1.427 1.427 0 1 1 2.447-1.47l3.368 5.606 3.368-5.606a1.427 1.427 0 0 1 2.446 1.47l-4.15 6.907 4.15 6.907Z" fill="#fff" fill-rule="evenodd" data-name="Path 35236"/></g><defs><linearGradient x1=".156" y1=".5" x2="1.376" y2=".519" id="a"><stop stop-color="#008bf5" offset="0"/><stop stop-color="#00467b" offset="1"/></linearGradient></defs></svg>