<svg xmlns="http://www.w3.org/2000/svg" width="16" height="15.92" viewBox="31 56 16 15.92"><g data-name="edit_1159633"><path d="M45.767 65.99a.398.398 0 0 0-.398.399v3.538c0 .66-.536 1.195-1.196 1.195h-11.18c-.66 0-1.195-.535-1.196-1.195V59.543c0-.66.535-1.195 1.195-1.195h3.538a.398.398 0 1 0 0-.797h-3.538A1.995 1.995 0 0 0 31 59.543v10.384a1.995 1.995 0 0 0 1.992 1.993h11.181a1.995 1.995 0 0 0 1.993-1.993V66.39a.398.398 0 0 0-.399-.399Zm0 0" fill="#fff" fill-rule="evenodd" data-name="Path 36706"/><path d="M46.008 56.525c-.7-.7-1.836-.7-2.536 0l-7.11 7.11a.398.398 0 0 0-.101.175l-.935 3.375a.398.398 0 0 0 .49.49l3.375-.935a.398.398 0 0 0 .176-.102l7.109-7.11c.699-.7.699-1.834 0-2.535l-.468-.468Zm-8.777 7.368 5.818-5.818 1.877 1.876-5.819 5.819-1.876-1.877Zm-.375.753 1.5 1.499-2.074.574.574-2.073Zm9.056-5.68-.422.422-1.877-1.877.423-.422a.996.996 0 0 1 1.408 0l.468.467a.998.998 0 0 1 0 1.41Zm0 0" fill="#fff" fill-rule="evenodd" data-name="Path 36707"/></g></svg>