<svg xmlns="http://www.w3.org/2000/svg" width="10.5" height="12.711" viewBox="55 95.661 10.5 12.711"><g data-name="Group 45065"><g data-name="Path 36617"><path d="M64.118 95.66h-7.736c-.763.001-1.381.62-1.382 1.382v8.29c0 .073.03.144.08.196l2.764 2.763c.052.051.122.08.195.08h6.08c.762 0 1.38-.619 1.381-1.381v-9.948c0-.762-.619-1.38-1.382-1.381Zm.83 11.33a.83.83 0 0 1-.83.829h-5.964l-2.601-2.601v-8.176a.83.83 0 0 1 .829-.828h7.736a.83.83 0 0 1 .83.828v9.948Z" fill="#fff" fill-rule="evenodd"/><path d="M64.118 95.66h-7.736c-.763.001-1.381.62-1.382 1.382v8.29c0 .073.03.144.08.196l2.764 2.763c.052.051.122.08.195.08h6.08c.762 0 1.38-.619 1.381-1.381v-9.948c0-.762-.619-1.38-1.382-1.381Zm.83 11.33a.83.83 0 0 1-.83.829h-5.964l-2.601-2.601v-8.176a.83.83 0 0 1 .829-.828h7.736a.83.83 0 0 1 .83.828v9.948Z" stroke-linejoin="round" stroke-linecap="round" stroke-width=".2" stroke="#fff" fill="transparent"/></g><g data-name="Path 36618"><path d="M58.197 104.11h-2.842a.355.355 0 0 0-.251.606l3.552 3.552a.355.355 0 0 0 .606-.252v-2.841c0-.589-.477-1.065-1.065-1.066Zm.355 3.049-2.34-2.34h1.985c.196 0 .355.16.355.356v1.984Z" fill="#fff" fill-rule="evenodd"/><path d="M58.197 104.11h-2.842a.355.355 0 0 0-.251.606l3.552 3.552a.355.355 0 0 0 .606-.252v-2.841c0-.589-.477-1.065-1.065-1.066Zm.355 3.049-2.34-2.34h1.985c.196 0 .355.16.355.356v1.984Z" stroke-linejoin="round" stroke-linecap="round" stroke-width=".2" stroke="#fff" fill="transparent"/></g><g data-name="Path 36619"><path d="M61.92 98.934h-4.262a.355.355 0 0 0 0 .71h4.263a.355.355 0 0 0 0-.71Z" fill="#fff" fill-rule="evenodd"/><path d="M61.92 98.934h-4.262a.355.355 0 0 0 0 .71h4.263a.355.355 0 0 0 0-.71Z" stroke-linejoin="round" stroke-linecap="round" stroke-width=".2" stroke="#fff" fill="transparent"/></g><g data-name="Path 36620"><path d="M60.678 101.116h-2.841a.355.355 0 0 0 0 .71h2.841a.355.355 0 0 0 0-.71Z" fill="#fff" fill-rule="evenodd"/><path d="M60.678 101.116h-2.841a.355.355 0 0 0 0 .71h2.841a.355.355 0 0 0 0-.71Z" stroke-linejoin="round" stroke-linecap="round" stroke-width=".2" stroke="#fff" fill="transparent"/></g></g></svg>