<svg xmlns="http://www.w3.org/2000/svg" width="12" height="13.306" viewBox="18 95.055 12 13.306"><path d="M26.514 98.917a.58.58 0 1 0-.82-.82l-4.231 4.231a1.906 1.906 0 0 0-.562 1.356c0 .512.2.993.562 1.355.724.724 1.987.724 2.71 0l4.966-4.965a2.92 2.92 0 0 0 .861-2.08 2.92 2.92 0 0 0-.861-2.08 2.945 2.945 0 0 0-4.16 0l-5.848 5.85a3.87 3.87 0 0 0 0 5.466 3.854 3.854 0 0 0 2.733 1.13c.99 0 1.98-.376 2.734-1.13l4.99-4.991a.58.58 0 1 0-.82-.82l-4.99 4.99a2.71 2.71 0 0 1-3.827 0 2.71 2.71 0 0 1 0-3.826l5.848-5.848a1.784 1.784 0 0 1 2.52 0c.336.336.52.784.52 1.26 0 .475-.184.922-.52 1.259l-4.966 4.964a.774.774 0 0 1-1.07 0 .75.75 0 0 1-.222-.535.75.75 0 0 1 .222-.535l4.231-4.23Z" fill="#fff" fill-rule="evenodd" data-name="Path 36648"/></svg>