<svg xmlns="http://www.w3.org/2000/svg" width="41.944" height="27.013" viewBox="280.978 34 41.944 27.013"><g data-name="Group 45074"><path d="M321.709 58.174c0 .478-.276.864-.618.864H305.44c-.343 0-.62-.386-.62-.864s.277-.864.62-.864h15.652c.342 0 .618.386.618.864Z" fill="#d8e4f7" fill-rule="evenodd" data-name="Path 36652"/><path d="M322.921 60.027c0 .545-.316.986-.707.986h-17.9c-.39 0-.707-.441-.707-.986 0-.546.318-.989.708-.989h17.899c.391 0 .707.443.707.989Z" fill="#d8e4f7" fill-rule="evenodd" data-name="Path 36653"/><g data-name="Group 45068"><path d="m304.473 48.243-21.866 7.263s-.968.03-1.458-1.446c-.517-1.559.303-2.03.303-2.03l21.867-7.264 1.154 3.477Z" fill="#d8e4f7" fill-rule="evenodd" data-name="Path 36654"/><path d="M313.684 34.19c-.527-.457-3.166-.07-6.191.934-3.027 1.006-5.372 2.275-5.52 2.956l-.04.014.803 2.421 11.792-3.917-.804-2.419-.04.012Z" fill="#d8e4f7" fill-rule="evenodd" data-name="Path 36655"/><path d="M314.528 36.598c.21.631-2.26 2.02-5.516 3.102-3.256 1.084-6.065 1.445-6.276.815-.209-.631 2.26-2.022 5.516-3.104 3.256-1.079 6.066-1.445 6.276-.813Z" fill="#d8e4f7" fill-rule="evenodd" data-name="Path 36656"/><path d="M314.043 36.759s-1.978-.131-5.922 1.179c-3.943 1.31-4.9 2.417-4.9 2.417l4.15 12.495 10.824-3.597-4.152-12.494Z" fill="#d8e4f7" fill-rule="evenodd" data-name="Path 36657"/><path d="M318.316 48.432c-.526-.458-3.166-.072-6.191.933-3.027 1.006-5.37 2.274-5.52 2.957l-.04.012.804 2.421 11.791-3.918-.804-2.419-.04.014Z" fill="#d8e4f7" fill-rule="evenodd" data-name="Path 36658"/><path d="M319.16 50.837c.21.634-2.26 2.021-5.516 3.103-3.255 1.083-6.065 1.447-6.275.815-.21-.632 2.26-2.02 5.516-3.102 3.256-1.082 6.066-1.447 6.275-.816Z" fill="#d8e4f7" fill-rule="evenodd" data-name="Path 36659"/><path d="m302.102 44.047 2.111-.702 1.829 5.5-2.112.701-1.828-5.499z" fill="#d8e4f7" fill-rule="evenodd" data-name="Rectangle 19283"/></g></g></svg>