<svg xmlns="http://www.w3.org/2000/svg" width="7.933" height="10.313" viewBox="22 9 7.933 10.313"><path d="M28.941 12.57h-.595v-1.158c0-1.306-1.04-2.392-2.347-2.412a2.387 2.387 0 0 0-2.412 2.38v1.19h-.595a.995.995 0 0 0-.992.992v4.76c0 .545.446.991.992.991h5.95a.995.995 0 0 0 .991-.992v-4.76a.995.995 0 0 0-.992-.991Zm-2.627 3.094v1.705a.355.355 0 0 1-.33.357.347.347 0 0 1-.365-.347v-1.715a.793.793 0 1 1 .695 0Zm1.338-3.094h-3.371v-1.19c0-.449.176-.87.496-1.19.32-.32.74-.496 1.19-.496.448 0 .87.176 1.19.496.32.32.495.741.495 1.19v1.19Z" fill="#6681a6" fill-rule="evenodd" data-name="Icon ionic-ios-lock"/></svg>