<svg xmlns="http://www.w3.org/2000/svg" width="22.902" height="31.857" viewBox="300.997 16 22.902 31.857"><g data-name="Group 45073"><g data-name="Group 45066"><path d="M315.508 26.131h-6.64c-4.314 3.626-7.871 12.14-7.871 17.006 0 6.325 8.162 4.574 11.451 4.264 3.291-.31 11.451 2.06 11.451-4.264 0-5.015-3.856-13.6-8.391-17.006Z" fill="#d7e5f7" fill-rule="evenodd" data-name="Path 36649"/></g><path d="M315.161 24.193c1.148-2.36 2.83-6.054 2.523-6.878-.446-1.198-3.168-2.437-5.236.486-1.57 2.22-5.527-1.895-5.728-.486-.233 1.63 1.22 4.797 2.3 6.878h6.141Z" fill="#d7e5f7" fill-rule="evenodd" data-name="Path 36650"/><path d="M315.37 25.232c0 .314-.254.57-.568.57h-5.353a.569.569 0 0 1-.568-.57c0-.314.253-.568.568-.568h5.353c.314 0 .568.254.568.568Z" fill="#d7e5f7" fill-rule="evenodd" data-name="Path 36651"/></g></svg>