<svg xmlns="http://www.w3.org/2000/svg" width="21.923" height="19.444" viewBox="16 26.451 21.923 19.444"><g data-name="Group 161458"><g data-name="Group 45058"><path d="M26.961 32.926a3.426 3.426 0 1 0 .001 6.851 3.426 3.426 0 0 0 0-6.851Zm-2.055 3.425a2.055 2.055 0 1 1 4.11 0 2.055 2.055 0 0 1-4.11 0Z" fill="#6681a6" fill-rule="evenodd" data-name="Path 36625"/><path d="M34.928 32.92c-4.397-4.56-11.537-4.56-15.934 0l-2.803 2.907a.686.686 0 0 0 0 .95l2.803 2.908c4.397 4.56 11.537 4.56 15.934 0l2.803-2.907a.686.686 0 0 0 0-.951l-2.803-2.907Zm-14.947.951c3.858-4.001 10.103-4.001 13.96 0l2.345 2.431-2.344 2.431c-3.858 4.002-10.103 4.002-13.961 0l-2.345-2.43 2.345-2.432Z" fill="#6681a6" fill-rule="evenodd" data-name="Path 36626"/></g><path d="m32.139 26.45-9.951 19.445" stroke-linejoin="round" stroke-linecap="round" stroke-width="1.5" stroke="#6681a6" fill="transparent" data-name="Path 36627"/></g></svg>