<svg xmlns="http://www.w3.org/2000/svg" width="23" height="23" viewBox="886 809 23 23"><g data-name="Group 45056"><path d="M902.5 809h-14a2.502 2.502 0 0 0-2.5 2.5v15c0 .133.053.26.146.354l5.001 5a.5.5 0 0 0 .353.146h11a2.502 2.502 0 0 0 2.5-2.5v-18a2.502 2.502 0 0 0-2.5-2.5Zm1.5 20.5a1.502 1.502 0 0 1-1.5 1.5h-10.793L887 826.293V811.5a1.502 1.502 0 0 1 1.5-1.5h14a1.502 1.502 0 0 1 1.5 1.5v18Z" fill="#6681a6" fill-rule="evenodd" data-name="Path 36617"/><path d="M890.5 826h-4a.5.5 0 0 0-.354.854l5.001 5a.5.5 0 0 0 .853-.354v-4a1.502 1.502 0 0 0-1.5-1.5Zm.5 4.293L887.707 827h2.793a.5.5 0 0 1 .5.5v2.793Z" fill="#6681a6" fill-rule="evenodd" data-name="Path 36618"/><path d="M897.5 815h-6a.5.5 0 0 0 0 1h6a.5.5 0 0 0 0-1Z" fill="#6681a6" fill-rule="evenodd" data-name="Path 36619"/><path d="M895.5 819h-4a.5.5 0 0 0 0 1h4a.5.5 0 0 0 0-1Z" fill="#6681a6" fill-rule="evenodd" data-name="Path 36620"/><path d="M896.5 823h-5a.5.5 0 0 0 0 1h5a.5.5 0 0 0 0-1Z" fill="#6681a6" fill-rule="evenodd" data-name="Path 36621"/><g data-name="Ellipse 1321"><path d="M898.5 820.4a5 5 0 1 1 0 .1z" fill="#fff" fill-rule="evenodd"/><path d="M898.5 820.4a5 5 0 1 1 0 .1z" stroke-linejoin="round" stroke-linecap="round" stroke="#707070" fill="transparent"/></g><path d="M903.5 815a5.5 5.5 0 1 0 0 11 5.5 5.5 0 1 0 0-11Zm0 10a4.5 4.5 0 1 1 4.5-4.5 4.505 4.505 0 0 1-4.5 4.5Z" fill="#6681a6" fill-rule="evenodd" data-name="Path 36622"/><path d="M905.5 820h-4a.5.5 0 0 0 0 1h4a.5.5 0 0 0 0-1Z" fill="#6681a6" fill-rule="evenodd" data-name="Path 36623"/><path d="M903.5 818a.5.5 0 0 0-.5.5v4a.5.5 0 0 0 1 0v-4a.5.5 0 0 0-.5-.5Z" fill="#6681a6" fill-rule="evenodd" data-name="Path 36624"/></g></svg>