<svg xmlns="http://www.w3.org/2000/svg" width="82.277" height="88.113" viewBox="24 17.076 82.277 88.113"><g data-name="pdf (2)"><g data-name="Group 40892"><path d="M114.854 0h29.841l26.341 26.346V76.94c0 6.144-5.025 11.174-11.174 11.174h-45.008c-6.143 0-11.169-5.03-11.169-11.174V11.174C103.685 5.031 108.711 0 114.854 0Z" fill-rule="evenodd" fill="url(&quot;#a&quot;)" transform="translate(-64.76 17.076)" data-name="Path 35237"/><path d="m79.936 17.076 26.341 26.346H82.776a2.848 2.848 0 0 1-2.84-2.845V17.076Z" fill="#b71d21" fill-rule="evenodd" data-name="Path 35238"/><path d="M26.452 54.596h60.685a2.459 2.459 0 0 1 2.452 2.453V79.31a2.459 2.459 0 0 1-2.452 2.452H26.452A2.459 2.459 0 0 1 24 79.311V57.049a2.459 2.459 0 0 1 2.452-2.453Z" fill="#b71d21" fill-rule="evenodd" data-name="Path 35239"/></g><path d="M41.348 59.136H36.77c-.785 0-1.422.637-1.422 1.422v15.238a1.423 1.423 0 1 0 2.845 0v-4.464h3.155c3.308 0 6-2.692 6-6v-.196c0-3.309-2.692-6-6-6Zm3.155 6.196a3.158 3.158 0 0 1-3.155 3.155h-3.155V61.98h3.155a3.159 3.159 0 0 1 3.154 3.155v.196Zm12.153-6.196H52.08c-.786 0-1.423.637-1.423 1.422v15.238c0 .786.637 1.423 1.423 1.423h4.577c3.308 0 6-2.692 6-6v-6.083c0-3.309-2.692-6-6-6Zm3.155 12.083a3.158 3.158 0 0 1-3.155 3.155h-3.155V61.98h3.155a3.159 3.159 0 0 1 3.155 3.155v6.083Zm9.275-9.238v3.938h6.595a1.423 1.423 0 0 1 0 2.845h-6.595v7.032a1.423 1.423 0 1 1-2.845 0V60.558c0-.785.637-1.422 1.423-1.422h9.155a1.423 1.423 0 0 1 0 2.845h-7.733Z" fill="#fff" fill-rule="evenodd" data-name="Path 35240"/></g><defs><linearGradient x1=".091" y1=".57" x2="1.222" y2=".588" id="a"><stop stop-color="#e5252a" offset="0"/><stop stop-color="#731315" offset="1"/></linearGradient></defs></svg>