<svg xmlns="http://www.w3.org/2000/svg" width="17" height="17" viewBox="189 13 17 17"><path d="M206 21.5c0-4.686-3.814-8.5-8.5-8.5s-8.5 3.814-8.5 8.5 3.814 8.5 8.5 8.5a8.477 8.477 0 0 0 6.012-2.488c1.615-1.603 0 0 0 0A8.468 8.468 0 0 0 206 21.5Zm-2.907 4.794-1.61-1.61c.607-.759.981-1.66 1.083-2.617h2.278a7.315 7.315 0 0 1-1.751 4.227Zm-5.593-8.76a3.971 3.971 0 0 1 3.967 3.966 3.963 3.963 0 0 1-3.967 3.967 3.971 3.971 0 0 1-3.967-3.967 3.971 3.971 0 0 1 3.967-3.967Zm7.344 3.4h-2.278a5.102 5.102 0 0 0-4.5-4.5v-2.278a7.382 7.382 0 0 1 6.778 6.777Zm-7.344 7.933a7.374 7.374 0 0 1-7.367-7.367c0-4.063 3.004-7.055 6.8-7.344v2.278A5.109 5.109 0 0 0 192.4 21.5c0 2.81 2.29 5.1 5.1 5.1a5.07 5.07 0 0 0 3.185-1.116l1.609 1.609a7.34 7.34 0 0 1-4.794 1.774Z" fill="#fff" fill-rule="evenodd" data-name="Path 36612"/></svg>