<svg xmlns="http://www.w3.org/2000/svg" width="13.672" height="13.676" viewBox="62 17.162 13.672 13.676"><g data-name="send_15742757"><g data-name="Group 45054"><path d="M74.864 22.691a1.463 1.463 0 0 1 0 2.618l-10.747 5.374a1.462 1.462 0 0 1-2.036-1.787l1.638-4.736a.488.488 0 0 0 0-.32l-1.638-4.736a1.464 1.464 0 0 1 2.036-1.787l10.747 5.374Zm-10.226 1.797-1.636 4.727a.49.49 0 0 0 .679.596l10.746-5.375a.487.487 0 0 0 0-.872l-10.746-5.375a.489.489 0 0 0-.679.596l1.636 4.727h3.702a.488.488 0 0 1 0 .976h-3.702Z" fill="#fff" fill-rule="evenodd" data-name="Path 36610"/></g></g></svg>