<svg xmlns="http://www.w3.org/2000/svg" width="24.347" height="24.342" viewBox="47.243 7.158 24.347 24.342"><g data-name="Group 161457"><g data-name="Group 161456"><path d="M48.76 31.5h21.313a1.52 1.52 0 0 0 1.517-1.517V16.879a.394.394 0 0 0-.14-.3L60.377 7.5a1.521 1.521 0 0 0-1.921 0l-11.073 9.079a.403.403 0 0 0-.14.3v13.104c0 .839.679 1.517 1.518 1.517Zm-.74-1.517v-12.28l6.852 5.62-6.831 6.83c-.01-.056-.021-.113-.021-.17Zm.74.74c-.056 0-.113-.01-.17-.02l6.883-6.884 2.978 2.445a1.523 1.523 0 0 0 1.927 0l2.977-2.445 6.883 6.883a.858.858 0 0 1-.17.021H48.76Zm22.027-.57-6.83-6.83 6.851-5.62v12.28c0 .057-.01.114-.02.17ZM58.943 8.101a.741.741 0 0 1 .937 0l10.7 8.778-10.695 8.784a.741.741 0 0 1-.937 0L48.243 16.88l10.7-8.778Z" fill="#fff" fill-rule="evenodd" data-name="Path 36732"/><path d="m56.654 16.16 2.372-2.373v7.609h.777v-7.609l2.372 2.373.549-.55-3.035-3.034a.39.39 0 0 0-.55 0l-3.034 3.035.549.549Z" fill="#fff" fill-rule="evenodd" data-name="Path 36733"/></g></g></svg>