<svg xmlns="http://www.w3.org/2000/svg" width="14" height="11" viewBox="312 17 14 11"><g data-name="mail_15742678"><path d="M324.5 17a1.498 1.498 0 0 1 1.5 1.5v8a1.498 1.498 0 0 1-1.5 1.5h-11a1.498 1.498 0 0 1-1.5-1.5v-8a1.498 1.498 0 0 1 1.5-1.5h11Zm-.26 1h-10.48l4.911 4.298a.5.5 0 0 0 .658 0L324.241 18Zm-11.24.664V26.5a.499.499 0 0 0 .5.5h11a.499.499 0 0 0 .5-.5v-7.836l-5.012 4.386a1.5 1.5 0 0 1-1.976 0L313 18.664ZM317.5 26a.5.5 0 0 1 0-1h3a.5.5 0 0 1 0 1h-3Z" fill="#fff" fill-rule="evenodd" data-name="Path 36611"/></g></svg>