<svg xmlns="http://www.w3.org/2000/svg" width="12.257" height="14.172" viewBox="1520.608 33 12.257 14.172"><g data-name="Group 45074"><g data-name="Path 36655"><path d="M1528.643 40.968a4.21 4.21 0 0 0-1.907-7.968 4.213 4.213 0 0 0-4.213 4.214c0 1.64.938 3.057 2.306 3.754a6.128 6.128 0 0 0-4.221 5.822.383.383 0 0 0 .766 0 5.362 5.362 0 1 1 10.725 0 .383.383 0 0 0 .766 0 6.128 6.128 0 0 0-4.222-5.822Zm-5.354-3.754a3.448 3.448 0 1 1 6.895 0 3.448 3.448 0 0 1-6.895 0Z" fill="#bfa25d" fill-rule="evenodd"/><path d="M1528.643 40.968a4.21 4.21 0 0 0-1.907-7.968 4.213 4.213 0 0 0-4.213 4.214c0 1.64.938 3.057 2.306 3.754a6.128 6.128 0 0 0-4.221 5.822.383.383 0 0 0 .766 0 5.362 5.362 0 1 1 10.725 0 .383.383 0 0 0 .766 0 6.128 6.128 0 0 0-4.222-5.822Zm-5.354-3.754a3.448 3.448 0 1 1 6.895 0 3.448 3.448 0 0 1-6.895 0Z" stroke-linejoin="round" stroke-linecap="round" stroke="#002d6a" fill="transparent"/></g></g></svg>