<svg xmlns="http://www.w3.org/2000/svg" width="37.872" height="32.264" viewBox="285.013 30.918 37.872 32.264"><g data-name="Group 45095"><g data-name="Group 45070"><path d="M293.489 42.085a1.98 1.98 0 1 0 0 3.961 1.98 1.98 0 0 0 0-3.961Zm0 3.02a1.038 1.038 0 1 1-.001-2.076 1.038 1.038 0 0 1 .001 2.076Z" fill="#d8e4f7" fill-rule="evenodd" data-name="Path 36660"/><path d="M293.435 46.338a8.42 8.42 0 0 0-8.422 8.42 8.422 8.422 0 1 0 8.422-8.42Zm0 14.922a6.501 6.501 0 1 1 6.502-6.501 6.501 6.501 0 0 1-6.502 6.5Z" fill="#d8e4f7" fill-rule="evenodd" data-name="Path 36661"/><path d="M296.756 46.503V44.81a.744.744 0 0 0-.743-.744h-5.047a.744.744 0 0 0-.744.744v1.693h6.534Z" fill="#d8e4f7" fill-rule="evenodd" data-name="Path 36662"/><path d="M292.576 45.408a.774.774 0 1 1-1.547 0 .774.774 0 0 1 1.547 0Z" fill="#d8e4f7" fill-rule="evenodd" data-name="Path 36663"/><path d="M296.076 45.408a.774.774 0 1 1-1.547 0 .774.774 0 0 1 1.547 0Z" fill="#d8e4f7" fill-rule="evenodd" data-name="Path 36664"/><path d="M289.861 46.337h7.149v1.08h-7.149v-1.08z" fill="#d8e4f7" fill-rule="evenodd" data-name="Rectangle 19284"/></g><g data-name="Group 45071"><path d="M314.517 41.128a1.981 1.981 0 1 0 0 3.963 1.981 1.981 0 0 0 0-3.963Zm0 3.02a1.039 1.039 0 1 1 0-2.077 1.039 1.039 0 0 1 0 2.077Z" fill="#d8e4f7" fill-rule="evenodd" data-name="Path 36665"/><path d="M314.464 45.38a8.423 8.423 0 1 0 0 16.845 8.423 8.423 0 0 0 0-16.845Zm0 14.925a6.502 6.502 0 1 1 0-13.005 6.502 6.502 0 0 1 0 13.005Z" fill="#d8e4f7" fill-rule="evenodd" data-name="Path 36666"/><path d="M317.785 45.545v-1.692a.744.744 0 0 0-.744-.743h-5.048a.744.744 0 0 0-.743.743v1.692h6.535Z" fill="#d8e4f7" fill-rule="evenodd" data-name="Path 36667"/><path d="M312.055 44.352a.775.775 0 1 1 0 .1z" fill="#d8e4f7" fill-rule="evenodd" data-name="Ellipse 1324"/><path d="M315.555 44.352a.775.775 0 1 1 0 .1z" fill="#d8e4f7" fill-rule="evenodd" data-name="Ellipse 1325"/><path d="M310.89 45.38h7.148v1.082h-7.149V45.38z" fill="#d8e4f7" fill-rule="evenodd" data-name="Rectangle 19285"/></g><path d="m298.107 36.182-.232-.203a1.485 1.485 0 0 0-2.093.147l-1.763 2.03a1.485 1.485 0 0 0 .147 2.093l.234.203c.619.536 1.555.47 2.093-.148l1.762-2.03a1.482 1.482 0 0 0-.148-2.092Zm-1.904 3.324c-.373.429-.949.539-1.287.245l-.128-.111c-.338-.294-.311-.878.062-1.31l1.223-1.406c.371-.429.948-.54 1.286-.245l.128.111c.338.295.31.88-.062 1.308l-1.222 1.408Z" fill="#d8e4f7" fill-rule="evenodd" data-name="Path 36668"/><path d="m304.62 32.05-.132-.28a1.483 1.483 0 0 0-1.974-.71l-2.431 1.147a1.484 1.484 0 0 0-.71 1.973l.132.28a1.484 1.484 0 0 0 1.974.71l2.431-1.147a1.484 1.484 0 0 0 .71-1.973Zm-3.084 2.274c-.514.242-1.086.11-1.277-.296l-.072-.153c-.191-.405.07-.931.585-1.173l1.685-.794c.514-.244 1.085-.112 1.277.294l.072.153c.191.405-.07.93-.585 1.174l-1.685.795Z" fill="#d8e4f7" fill-rule="evenodd" data-name="Path 36669"/><path d="M297.625 37.227c-.134.12-.387.056-.567-.144-.18-.2-.217-.46-.083-.58l3.214-2.887c.133-.119.387-.054.566.147.18.2.218.458.084.577l-3.214 2.887Z" fill="#d8e4f7" fill-rule="evenodd" data-name="Path 36670"/><path d="m312.176 33.9.089-.297a1.485 1.485 0 0 0-1-1.844l-2.576-.766a1.483 1.483 0 0 0-1.844 1l-.088.296a1.484 1.484 0 0 0 1 1.845l2.575.765a1.483 1.483 0 0 0 1.844-.999Zm-3.814-.36c-.545-.161-.882-.642-.755-1.071l.048-.162c.128-.43.673-.647 1.218-.485l1.787.531c.544.162.882.641.755 1.072l-.049.162c-.128.428-.672.646-1.217.485l-1.787-.533Z" fill="#d8e4f7" fill-rule="evenodd" data-name="Path 36671"/><path d="M303.51 33.099c-.18 0-.324-.218-.325-.487 0-.269.143-.487.323-.487l4.321-.01c.179 0 .325.217.325.486.001.27-.144.488-.323.488l-4.32.01Z" fill="#d8e4f7" fill-rule="evenodd" data-name="Path 36672"/><path d="m314.216 42.135.303-.066a1.483 1.483 0 0 0 1.13-1.766l-.577-2.626a1.482 1.482 0 0 0-1.766-1.131l-.302.066c-.8.175-1.305.966-1.13 1.766l.576 2.628c.175.8.966 1.306 1.766 1.13Zm-1.53-3.512c-.122-.556.135-1.084.573-1.178l.165-.037c.438-.097.891.276 1.013.83l.399 1.822c.122.554-.135 1.082-.572 1.177l-.165.037c-.437.096-.892-.276-1.013-.831l-.4-1.82Z" fill="#d8e4f7" fill-rule="evenodd" data-name="Path 36673"/><path d="M310.726 34.163c-.088-.157.032-.39.267-.52.235-.13.496-.11.583.047l2.099 3.776c.087.158-.033.39-.268.52-.235.131-.496.11-.583-.047l-2.098-3.776Z" fill="#d8e4f7" fill-rule="evenodd" data-name="Path 36674"/><path d="M293.947 43.514c-.07.165-.328.213-.575.108-.247-.105-.392-.324-.322-.489l1.688-3.977c.07-.165.327-.214.574-.109.248.104.391.324.321.489l-1.686 3.978Z" fill="#d8e4f7" fill-rule="evenodd" data-name="Path 36675"/></g></svg>