<svg xmlns="http://www.w3.org/2000/svg" width="82.264" height="88.094" viewBox="24 17.095 82.264 88.094"><g data-name="xlsx"><g data-name="Group 40893"><path d="M114.82 0h29.83l26.342 26.337v50.585c0 6.147-5.03 11.172-11.172 11.172h-45c-6.143 0-11.173-5.025-11.173-11.172v-65.75c0-6.147 5.03-11.172 11.172-11.172Z" fill-rule="evenodd" fill="url(&quot;#a&quot;)" transform="translate(-64.729 17.095)" data-name="Path 35241"/><path d="m79.922 17.095 26.342 26.337H82.76a2.846 2.846 0 0 1-2.84-2.84V17.095Z" fill="#005c2f" fill-rule="evenodd" data-name="Path 35242"/><path d="M26.452 54.604h60.67a2.458 2.458 0 0 1 2.451 2.452v22.26a2.463 2.463 0 0 1-2.452 2.456H26.452A2.463 2.463 0 0 1 24 79.315V57.056a2.458 2.458 0 0 1 2.452-2.452Z" fill="#005c2f" fill-rule="evenodd" data-name="Path 35243"/></g><path d="M56.774 75.806c0 .785-.637 1.422-1.422 1.422h-9.154a1.422 1.422 0 0 1-1.422-1.422V60.57a1.422 1.422 0 1 1 2.845 0v13.813h7.73c.786 0 1.423.636 1.423 1.422ZM41.448 59.35a1.422 1.422 0 0 0-1.952.487l-3.357 5.589-3.357-5.589a1.423 1.423 0 0 0-2.439 1.465l4.137 6.885-4.137 6.885a1.422 1.422 0 1 0 2.439 1.465l3.357-5.588 3.357 5.588a1.421 1.421 0 1 0 2.439-1.465l-4.137-6.885 4.137-6.885a1.423 1.423 0 0 0-.487-1.952Zm21.995 2.642h2.265c.915 0 1.66.744 1.66 1.66a1.422 1.422 0 0 0 2.844 0 4.509 4.509 0 0 0-4.504-4.505h-2.265a5.237 5.237 0 0 0-5.234 5.229c0 2.552 1.31 3.796 2.41 4.391 1.396.755 3.157.842 4.36.842a2.39 2.39 0 0 1 2.388 2.384 2.392 2.392 0 0 1-2.389 2.39h-2.265a1.66 1.66 0 0 1-1.66-1.66 1.422 1.422 0 1 0-2.844 0 4.509 4.509 0 0 0 4.504 4.504h2.265a5.24 5.24 0 0 0 5.234-5.234 5.237 5.237 0 0 0-5.234-5.228c-3.629 0-3.924-1.082-3.924-2.39a2.389 2.389 0 0 1 2.389-2.383Zm15.65 6.195 4.137-6.885a1.422 1.422 0 0 0-2.438-1.465l-3.358 5.589-3.357-5.589a1.423 1.423 0 0 0-2.438 1.465l4.136 6.885-4.136 6.885a1.422 1.422 0 1 0 2.438 1.465l3.357-5.588 3.358 5.588a1.421 1.421 0 1 0 2.438-1.465l-4.136-6.885Z" fill="#fff" fill-rule="evenodd" data-name="Path 35244"/></g><defs><linearGradient x1=".351" y1=".55" x2="1.356" y2=".55" id="a"><stop stop-color="#00733b" offset="0"/><stop stop-color="#003a1e" offset="1"/></linearGradient></defs></svg>